<svg xmlns="http://www.w3.org/2000/svg" viewBox="0 0 28 28" width="28px" height="28px">
    <path fill="#d3c4ff" d="M8.127,1.75c1-0.562,12.208-0.372,13,2c0.71,2.125,0.71,6.438-2.188,7.062 c-2.63,0.567-9.812-0.625-10.812-2.125C6.79,6.221,7.127,2.312,8.127,1.75z" />
    <path d="M14,12c-0.006,0-0.013,0-0.019,0c-0.15-0.005-0.291-0.079-0.381-0.2L12.25,10H9.5C8.673,10,8,9.327,8,8.5v-5 C8,2.673,8.673,2,9.5,2h9C19.327,2,20,2.673,20,3.5v5c0,0.827-0.673,1.5-1.5,1.5h-2.523l-1.601,1.829 C14.281,11.938,14.144,12,14,12z M9.5,3C9.224,3,9,3.224,9,3.5v5C9,8.776,9.224,9,9.5,9h3c0.157,0,0.306,0.074,0.4,0.2l1.13,1.506 l1.344-1.536C15.469,9.062,15.606,9,15.75,9h2.75C18.776,9,19,8.776,19,8.5v-5C19,3.224,18.776,3,18.5,3H9.5z" />
    <path d="M22,13c-0.006,0-0.013,0-0.02,0c-0.151-0.006-0.291-0.08-0.381-0.201l-0.79-1.06c-0.165-0.222-0.119-0.535,0.102-0.7 c0.222-0.166,0.534-0.12,0.7,0.102l0.42,0.564l1.342-1.534C23.469,10.062,23.606,10,23.75,10h0.75c0.276,0,0.5-0.224,0.5-0.5v-5 C25,4.224,24.776,4,24.5,4h-2C22.224,4,22,3.776,22,3.5S22.224,3,22.5,3h2C25.327,3,26,3.673,26,4.5v5c0,0.827-0.673,1.5-1.5,1.5 h-0.523l-1.601,1.829C22.281,12.938,22.144,13,22,13z" />
    <path d="M6,13c-0.144,0-0.281-0.062-0.376-0.171L4.023,11H3.5C2.673,11,2,10.327,2,9.5v-5C2,3.673,2.673,3,3.5,3h2 C5.776,3,6,3.224,6,3.5S5.776,4,5.5,4h-2C3.224,4,3,4.224,3,4.5v5C3,9.776,3.224,10,3.5,10h0.75c0.144,0,0.281,0.062,0.376,0.171 l1.342,1.534l0.42-0.564c0.165-0.221,0.479-0.266,0.7-0.102c0.221,0.165,0.267,0.478,0.102,0.7l-0.79,1.06 C6.311,12.92,6.17,12.994,6.02,13C6.013,13,6.006,13,6,13z" />
    <path d="M22,19c-1.103,0-2-0.897-2-2s0.897-2,2-2s2,0.897,2,2S23.103,19,22,19z M22,16c-0.551,0-1,0.449-1,1s0.449,1,1,1 s1-0.449,1-1S22.551,16,22,16z" />
    <path d="M25.5,24c-0.276,0-0.5-0.224-0.5-0.5v-1c0-0.827-0.673-1.5-1.5-1.5h-3c-0.276,0-0.5-0.224-0.5-0.5s0.224-0.5,0.5-0.5h3 c1.378,0,2.5,1.122,2.5,2.5v1C26,23.776,25.776,24,25.5,24z" />
    <path d="M6,19c-1.103,0-2-0.897-2-2s0.897-2,2-2s2,0.897,2,2S7.103,19,6,19z M6,16c-0.551,0-1,0.449-1,1s0.449,1,1,1s1-0.449,1-1 S6.551,16,6,16z" />
    <path d="M2.5,24C2.224,24,2,23.776,2,23.5v-1C2,21.122,3.122,20,4.5,20h3C7.776,20,8,20.224,8,20.5S7.776,21,7.5,21h-3 C3.673,21,3,21.673,3,22.5v1C3,23.776,2.776,24,2.5,24z" />
    <path d="M14,19.5c-1.654,0-3-1.346-3-3s1.346-3,3-3s3,1.346,3,3S15.654,19.5,14,19.5z M14,14.5c-1.103,0-2,0.897-2,2s0.897,2,2,2 s2-0.897,2-2S15.103,14.5,14,14.5z" />
    <path d="M19,26c-0.276,0-0.5-0.224-0.5-0.5v-2c0-0.827-0.673-1.5-1.5-1.5h-6c-0.827,0-1.5,0.673-1.5,1.5v2 C9.5,25.776,9.276,26,9,26s-0.5-0.224-0.5-0.5v-2c0-1.378,1.122-2.5,2.5-2.5h6c1.378,0,2.5,1.122,2.5,2.5v2 C19.5,25.776,19.276,26,19,26z" />
</svg>