<svg xmlns="http://www.w3.org/2000/svg" viewBox="0 0 24 24" width="28px" height="28px">
    <path fill="#d3c4ff" d="M2.79719,12.7765c-0.60926,2.3778 1.29373,5.8218 2.42574,7.2772c4.36635,4.8515 13.0991,-0.4851 15.0397,-3.8812c1.9406,-3.396 0.9703,-7.76238 -0.9703,-11.6436c-1.9406,-3.88119 -10.6278,-2.94718 -11.5981,0.44887c-1.88488,6.59701 -3.39605,1.9406 -4.89699,7.79871Z" />
    <path fill-rule="evenodd" d="M7.5,11c0,-0.2761 0.22386,-0.5 0.5,-0.5h8c0.2761,0 0.5,0.2239 0.5,0.5v12c0,0.2761 -0.2239,0.5 -0.5,0.5h-8c-0.27614,0 -0.5,-0.2239 -0.5,-0.5v-12Zm1,0.5v11h7v-11h-7Z" />
    <g fill-rule="evenodd">
        <path d="M15.5,18c0,-0.2761 0.2239,-0.5 0.5,-0.5h6c0.2761,0 0.5,0.2239 0.5,0.5v5c0,0.2761 -0.2239,0.5 -0.5,0.5h-6c-0.2761,0 -0.5,-0.2239 -0.5,-0.5v-5Zm1,0.5v4h5v-4h-5Z" />
        <path d="M1.5,14c0,-0.2761 0.22386,-0.5 0.5,-0.5h6c0.27614,0 0.5,0.2239 0.5,0.5v9c0,0.2761 -0.22386,0.5 -0.5,0.5h-6c-0.27614,0 -0.5,-0.2239 -0.5,-0.5v-9Zm1,0.5v8h5v-8h-5Z" />
        <path d="M11.2007,1.0986c0.2516,-0.798135 1.3469,-0.798133 1.5986,0l0.4516,1.43236h1.4079c0.435,0 0.7157,0.3103 0.8051,0.6179c0.089,0.30621 0.0201,0.703 -0.3112,0.95102l-1.1383,0.85216l0.4448,1.41067c0.1181,0.37446 -0.0205,0.73976 -0.2791,0.94983c-0.2644,0.21471 -0.6737,0.27535 -1.0141,0.02048l-1.166,-0.87292l-1.1661,0.87292c-0.3404,0.25487 -0.7497,0.19423 -1.01405,-0.02048c-0.25864,-0.21007 -0.39721,-0.57537 -0.27912,-0.94983l0.44482,-1.41067l-1.13829,-0.85216c-0.33129,-0.24802 -0.4002,-0.64481 -0.31123,-0.95102c0.08936,-0.3076 0.37007,-0.6179 0.80514,-0.6179h1.40783l0.4517,-1.43236Zm0.7993,0.7904l-0.4075,1.29232c-0.0657,0.20812 -0.2587,0.34964 -0.4769,0.34964h-1.35967l1.11277,0.83304c0.17,0.12728 0.2411,0.34808 0.1772,0.55063l-0.4171,1.32282l1.0715,-0.8022c0.1777,-0.13299 0.4217,-0.13299 0.5993,0l1.0716,0.8022l-0.4172,-1.32282c-0.0638,-0.20255 0.0072,-0.42335 0.1772,-0.55063l1.1128,-0.83304h-1.3597c-0.2182,0 -0.4112,-0.14152 -0.4768,-0.34964l-0.4075,-1.29232Z" />
        <path d="M18.7544,4.05711c0.2342,-0.74281 1.2569,-0.74281 1.4911,0l0.358,1.13535h1.1121c0.4073,0 0.6685,0.291 0.751,0.57501c0.0821,0.28262 0.019,0.65155 -0.2894,0.88247l-0.9013,0.67472l0.3529,1.1192c0.1093,0.34652 -0.019,0.68592 -0.2595,0.88128c-0.2463,0.2 -0.6296,0.25712 -0.9476,0.01909l-0.9217,-0.69005l-0.9218,0.69005c-0.3179,0.23803 -0.7013,0.18091 -0.9475,-0.0191c-0.2406,-0.19536 -0.3688,-0.53475 -0.2596,-0.88127l0.3529,-1.1192l-0.9012,-0.67472c-0.3085,-0.23092 -0.3716,-0.59985 -0.2895,-0.88247c0.0825,-0.28401 0.3437,-0.57501 0.751,-0.57501h1.1121l0.358,-1.13535Zm0.7456,0.96082l-0.2602,0.8249c-0.0656,0.20812 -0.2586,0.34963 -0.4768,0.34963h-0.8827l0.7269,0.54417c0.17,0.12728 0.241,0.34807 0.1772,0.55062l-0.2698,0.85539l0.6857,-0.51331c0.1777,-0.13299 0.4217,-0.13299 0.5993,0l0.6857,0.51331l-0.2697,-0.85539c-0.0639,-0.20255 0.0071,-0.42334 0.1772,-0.55062l0.7268,-0.54417h-0.8827c-0.2182,0 -0.4112,-0.14151 -0.4768,-0.34963l-0.2601,-0.8249Z" />
        <path d="M3.75441,4.05711c0.23423,-0.74281 1.25688,-0.74281 1.49112,0l0.35801,1.13535h1.11209c0.40727,0 0.66846,0.291 0.75098,0.57501c0.08211,0.28262 0.01901,0.65155 -0.28945,0.88247l-0.90127,0.67472l0.35292,1.1192c0.10927,0.34652 -0.01902,0.68592 -0.25954,0.88128c-0.24624,0.2 -0.62961,0.25712 -0.94756,0.01909l-0.92174,-0.69005l-0.92175,0.69005c-0.31795,0.23803 -0.70132,0.18091 -0.94756,-0.0191c-0.24052,-0.19536 -0.36881,-0.53475 -0.25954,-0.88127l0.35292,-1.1192l-0.90127,-0.67472c-0.30845,-0.23092 -0.37155,-0.59985 -0.28944,-0.88247c0.08251,-0.28401 0.34371,-0.57501 0.75098,-0.57501h1.11208l0.35802,-1.13535Zm0.74556,0.96082l-0.26012,0.8249c-0.06563,0.20812 -0.25864,0.34963 -0.47685,0.34963h-0.8827l0.72687,0.54417c0.17002,0.12728 0.24108,0.34807 0.17721,0.55062l-0.26973,0.85539l0.68567,-0.51331c0.17763,-0.13299 0.42166,-0.13299 0.5993,0l0.68567,0.51331l-0.26973,-0.85539c-0.06388,-0.20255 0.00718,-0.42334 0.1772,-0.55062l0.72687,-0.54417h-0.88269c-0.21822,0 -0.41123,-0.14151 -0.47686,-0.34963l-0.26011,-0.8249Z" />
    </g>
</svg>