<svg xmlns="http://www.w3.org/2000/svg" viewBox="0 0 28 28" width="28px" height="28px">
    <path fill="#d3c4ff" d="m19.316 19.908h-10.632c-2.692 0-4.875-2.183-4.875-4.875v-4.735c0-2.692 2.183-4.875 4.875-4.875h10.632c2.692 0 4.875 2.183 4.875 4.875v4.735c0 2.692-2.182 4.875-4.875 4.875z" />
    <path d="m22.461 21h-13.965c-.584 0-1.137-.254-1.518-.698s-.548-1.029-.459-1.606l1.539-10c.151-.983.983-1.696 1.977-1.696h13.965c.584 0 1.137.254 1.518.698s.548 1.029.459 1.606l-1.539 10c-.151.983-.983 1.696-1.977 1.696zm-12.426-13c-.497 0-.913.356-.988.848l-1.539 10c-.044.289.039.582.229.803s.467.349.759.349h13.965c.497 0 .913-.356.988-.848l1.539-10c.044-.289-.039-.582-.229-.803s-.467-.349-.759-.349z" />
    <path d="m16.248 15.5c-.088 0-.176-.023-.254-.069l-7.93-4.67c-.237-.14-.317-.446-.177-.685s.447-.316.685-.177l7.695 4.532 8.797-4.398c.316-.159.729.093.729.447 0 .219-.138.405-.332.473l-8.989 4.495c-.071.034-.148.052-.224.052z" />
    <path d="m6.5 10h-4c-.276 0-.5-.224-.5-.5s.224-.5.5-.5h4c.276 0 .5.224.5.5s-.224.5-.5.5z" />
    <path d="m5.5 14h-3c-.276 0-.5-.224-.5-.5s.224-.5.5-.5h3c.276 0 .5.224.5.5s-.224.5-.5.5z" />
    <path d="m4.5 18h-2c-.276 0-.5-.224-.5-.5s.224-.5.5-.5h2c.276 0 .5.224.5.5s-.224.5-.5.5z" />
</svg>